<svg version="1.1" id="Layer_1" xmlns="http://www.w3.org/2000/svg" xmlns:xlink="http://www.w3.org/1999/xlink" x="0px" y="0px"
	 width="100%" viewBox="0 0 192 192" enable-background="new 0 0 192 192" xml:space="preserve">
<path fill="#000000" opacity="1.000000" stroke="none" 
	d="
M193.000000,64.000000 
	C193.000000,107.305435 193.000000,150.110870 193.000000,192.958160 
	C129.069611,192.958160 65.139175,192.958160 1.104371,192.958160 
	C1.104371,129.111420 1.104371,65.222603 1.104371,1.166896 
	C64.999641,1.166896 128.999786,1.166896 193.000000,1.166896 
	C193.000000,21.860556 193.000000,42.680279 193.000000,64.000000 
M17.120256,35.936264 
	C17.110828,56.198959 17.072289,76.461693 17.099943,96.724342 
	C17.129177,118.144760 17.221453,139.565094 17.114227,161.773880 
	C18.644938,172.988510 24.233286,177.929779 35.504829,177.932022 
	C76.828346,177.940277 118.152588,177.794678 159.474854,178.019302 
	C169.228271,178.072327 177.193970,171.352310 177.107544,160.643616 
	C176.771378,118.989227 176.722656,77.328026 177.141449,35.675133 
	C177.249207,24.957376 169.048721,17.585236 159.249619,17.921911 
	C148.597992,18.287874 137.924026,18.002483 127.259804,18.003145 
	C96.433540,18.005056 65.607162,17.959309 34.781086,18.036766 
	C23.889078,18.064133 17.255449,24.648035 17.120256,35.936264 
z"/>
<path fill="#ACACAC" opacity="1.000000" stroke="none" 
	d="
M17.282812,35.013172 
	C17.255449,24.648035 23.889078,18.064133 34.781086,18.036766 
	C65.607162,17.959309 96.433540,18.005056 127.259804,18.003145 
	C137.924026,18.002483 148.597992,18.287874 159.249619,17.921911 
	C169.048721,17.585236 177.249207,24.957376 177.141449,35.675133 
	C176.722656,77.328026 176.771378,118.989227 177.107544,160.643616 
	C177.193970,171.352310 169.228271,178.072327 159.474854,178.019302 
	C118.152588,177.794678 76.828346,177.940277 35.504829,177.932022 
	C24.233286,177.929779 18.644938,172.988510 17.516638,161.178162 
	C18.278162,159.024948 18.948498,157.467896 18.950855,155.909836 
	C19.009203,117.384483 19.019621,78.858971 18.924358,40.333759 
	C18.919970,38.558891 17.854233,36.786640 17.282812,35.013172 
M172.970932,122.500000 
	C172.970016,93.844711 172.991943,65.189384 172.957062,36.534142 
	C172.942841,24.843641 168.935379,20.706074 157.461502,20.693275 
	C116.977592,20.648127 76.493584,20.649136 36.009678,20.691710 
	C24.904938,20.703386 20.840923,24.759033 20.833202,35.717285 
	C20.804560,76.367828 20.802576,117.018425 20.836073,157.668961 
	C20.845013,168.515945 25.157936,172.894577 35.966846,172.907425 
	C76.617332,172.955719 117.267944,172.956665 157.918411,172.907288 
	C168.383453,172.894577 172.878387,168.379257 172.947144,157.986221 
	C173.023178,146.491272 172.968597,134.995438 172.970932,122.500000 
z"/>
<path fill="#B4B4B4" opacity="1.000000" stroke="none" 
	d="
M17.201534,35.474716 
	C17.854233,36.786640 18.919970,38.558891 18.924358,40.333759 
	C19.019621,78.858971 19.009203,117.384483 18.950855,155.909836 
	C18.948498,157.467896 18.278162,159.024948 17.602619,160.783966 
	C17.221453,139.565094 17.129177,118.144760 17.099943,96.724342 
	C17.072289,76.461693 17.110828,56.198959 17.201534,35.474716 
z"/>
<path fill="#FEFEFE" opacity="1.000000" stroke="none" 
	d="
M172.970917,123.000000 
	C172.968597,134.995438 173.023178,146.491272 172.947144,157.986221 
	C172.878387,168.379257 168.383453,172.894577 157.918411,172.907288 
	C117.267944,172.956665 76.617332,172.955719 35.966846,172.907425 
	C25.157936,172.894577 20.845013,168.515945 20.836073,157.668961 
	C20.802576,117.018425 20.804560,76.367828 20.833202,35.717285 
	C20.840923,24.759033 24.904938,20.703386 36.009678,20.691710 
	C76.493584,20.649136 116.977592,20.648127 157.461502,20.693275 
	C168.935379,20.706074 172.942841,24.843641 172.957062,36.534142 
	C172.991943,65.189384 172.970016,93.844711 172.970917,123.000000 
M93.194397,78.119972 
	C90.507118,77.690720 89.292755,78.552177 89.362785,81.551353 
	C89.537399,89.029213 89.418678,96.513916 89.417816,103.995872 
	C89.417587,106.012520 89.417778,108.029167 89.417778,110.045815 
	C88.965088,110.145531 88.512390,110.245247 88.059700,110.344963 
	C85.364922,107.565514 82.670143,104.786057 79.720978,101.389153 
	C73.028671,94.358658 66.522301,87.133469 59.510784,80.437210 
	C57.799179,78.802559 54.410915,78.353630 51.833069,78.447296 
	C50.627026,78.491135 48.552094,81.099380 48.514065,82.587372 
	C48.231052,93.660599 48.360451,104.744362 48.360451,115.965210 
	C50.535175,115.965210 52.246140,115.965210 54.322311,115.965210 
	C54.322311,105.233971 54.322311,94.847374 54.322311,85.179001 
	C61.350113,91.704178 68.558662,98.397179 76.026405,105.722252 
	C78.700386,108.668579 80.991104,112.172729 84.182739,114.365654 
	C86.319748,115.833961 89.761078,115.834450 92.565468,115.655701 
	C93.484718,115.597092 94.934601,112.918961 94.953041,111.424080 
	C95.086311,100.618347 94.914642,89.808861 94.881477,78.499115 
	C94.592300,78.423149 94.303131,78.347191 93.194397,78.119972 
M108.057434,116.088264 
	C117.050911,116.090195 126.045082,116.161674 135.037628,116.071236 
	C141.784348,116.003387 145.043167,112.639526 145.106979,105.838745 
	C145.164795,99.677116 145.200165,93.512848 145.084000,87.352776 
	C144.988205,82.274117 141.838150,78.340668 137.053375,78.206093 
	C126.779434,77.917137 116.491737,78.117447 106.014679,78.117447 
	C106.014679,80.252808 106.014679,81.949638 106.014679,83.891190 
	C114.762993,83.891190 123.083168,83.887909 131.403351,83.892128 
	C139.571304,83.896263 140.825226,85.642029 138.347137,94.170746 
	C127.725319,94.170746 116.965027,94.170746 105.940636,94.170746 
	C105.940636,96.334610 105.940636,98.044273 105.940636,100.286896 
	C117.204987,100.286896 128.110275,100.286896 138.932281,100.286896 
	C139.989319,109.811493 139.632324,110.217766 130.729828,110.221725 
	C129.563995,110.222244 128.398178,110.221832 127.232346,110.221832 
	C120.148132,110.221832 113.063919,110.221832 104.640198,110.221832 
	C105.822769,112.921913 106.506660,114.483383 108.057434,116.088264 
z"/>
<path fill="#B2C840" opacity="1.000000" stroke="none" 
	d="
M107.623993,116.066559 
	C106.506660,114.483383 105.822769,112.921913 104.640198,110.221832 
	C113.063919,110.221832 120.148132,110.221832 127.232346,110.221832 
	C128.398178,110.221832 129.563995,110.222244 130.729828,110.221725 
	C139.632324,110.217766 139.989319,109.811493 138.932281,100.286896 
	C128.110275,100.286896 117.204987,100.286896 105.940636,100.286896 
	C105.940636,98.044273 105.940636,96.334610 105.940636,94.170746 
	C116.965027,94.170746 127.725319,94.170746 138.347137,94.170746 
	C140.825226,85.642029 139.571304,83.896263 131.403351,83.892128 
	C123.083168,83.887909 114.762993,83.891190 106.014679,83.891190 
	C106.014679,81.949638 106.014679,80.252808 106.014679,78.117447 
	C116.491737,78.117447 126.779434,77.917137 137.053375,78.206093 
	C141.838150,78.340668 144.988205,82.274117 145.084000,87.352776 
	C145.200165,93.512848 145.164795,99.677116 145.106979,105.838745 
	C145.043167,112.639526 141.784348,116.003387 135.037628,116.071236 
	C126.045082,116.161674 117.050911,116.090195 107.623993,116.066559 
z"/>
<path fill="#304782" opacity="1.000000" stroke="none" 
	d="
M75.767212,105.090164 
	C68.558662,98.397179 61.350113,91.704178 54.322311,85.179001 
	C54.322311,94.847374 54.322311,105.233971 54.322311,115.965210 
	C52.246140,115.965210 50.535175,115.965210 48.360451,115.965210 
	C48.360451,104.744362 48.231052,93.660599 48.514065,82.587372 
	C48.552094,81.099380 50.627026,78.491135 51.833069,78.447296 
	C54.410915,78.353630 57.799179,78.802559 59.510784,80.437210 
	C66.522301,87.133469 73.028671,94.358658 79.574158,101.885437 
	C78.207306,103.284538 76.987267,104.187355 75.767212,105.090164 
z"/>
<path fill="#2F4C87" opacity="1.000000" stroke="none" 
	d="
M75.896812,105.406204 
	C76.987267,104.187355 78.207306,103.284538 79.701355,102.194160 
	C82.670143,104.786057 85.364922,107.565514 88.059700,110.344963 
	C88.512390,110.245247 88.965088,110.145531 89.417778,110.045815 
	C89.417778,108.029167 89.417587,106.012520 89.417816,103.995872 
	C89.418678,96.513916 89.537399,89.029213 89.362785,81.551353 
	C89.292755,78.552177 90.507118,77.690720 93.713364,78.346756 
	C94.406860,78.755531 94.609276,78.897865 94.839561,79.000557 
	C94.914642,89.808861 95.086311,100.618347 94.953041,111.424080 
	C94.934601,112.918961 93.484718,115.597092 92.565468,115.655701 
	C89.761078,115.834450 86.319748,115.833961 84.182739,114.365654 
	C80.991104,112.172729 78.700386,108.668579 75.896812,105.406204 
z"/>
<path fill="#3B5991" opacity="1.000000" stroke="none" 
	d="
M94.860519,78.749832 
	C94.609276,78.897865 94.406860,78.755531 94.123138,78.422394 
	C94.303131,78.347191 94.592300,78.423149 94.860519,78.749832 
z"/>
</svg>